M48
; DRILL file {KiCad 7.0.8} date Thu Nov 16 13:07:04 2023
; FORMAT={-:-/ absolute / inch / decimal}
; #@! TF.CreationDate,2023-11-16T13:07:04-05:00
; #@! TF.GenerationSoftware,Kicad,Pcbnew,7.0.8
; #@! TF.FileFunction,Plated,1,2,PTH
FMAT,2
INCH
; #@! TA.AperFunction,Plated,PTH,ComponentDrill
T1C0.0197
; #@! TA.AperFunction,Plated,PTH,ViaDrill
T2C0.0256
; #@! TA.AperFunction,Plated,PTH,ComponentDrill
T3C0.0276
; #@! TA.AperFunction,Plated,PTH,ComponentDrill
T4C0.0300
; #@! TA.AperFunction,Plated,PTH,ComponentDrill
T5C0.0315
; #@! TA.AperFunction,Plated,PTH,ComponentDrill
T6C0.0320
; #@! TA.AperFunction,Plated,PTH,ComponentDrill
T7C0.0354
; #@! TA.AperFunction,Plated,PTH,ComponentDrill
T8C0.0394
; #@! TA.AperFunction,Plated,PTH,ComponentDrill
T9C0.0402
; #@! TA.AperFunction,Plated,PTH,ComponentDrill
T10C0.0433
; #@! TA.AperFunction,Plated,PTH,ComponentDrill
T11C0.0512
; #@! TA.AperFunction,Plated,PTH,ComponentDrill
T12C0.0787
%
G90
G05
T1
X5.8Y-2.1602
X5.8Y-2.1996
T2
X2.69Y-3.565
X2.925Y-3.565
X3.1Y-2.8
X3.2Y-3.3
T3
X2.6Y-1.7996
X2.6Y-2.0996
X2.9Y-1.7996
X2.9Y-2.0996
X5.2Y-1.5996
X5.2Y-1.7996
X5.5Y-1.5996
X5.5Y-1.7996
T4
X2.411Y-3.5642
X2.411Y-5.4996
X3.0803Y-3.5642
X3.0803Y-5.4996
X6.05Y-3.1496
X6.05Y-3.2496
X6.05Y-3.3496
X6.05Y-3.4496
X6.05Y-3.5496
X6.05Y-3.6496
T5
X5.5622Y-1.1996
X5.7591Y-1.1996
X5.9622Y-1.7996
X6.1591Y-1.7996
T6
X2.9Y-1.5996
X2.9Y-1.6996
X2.975Y-1.6496
X5.65Y-1.7996
X5.7Y-1.8746
X5.75Y-1.7996
T7
X2.6Y-1.5996
X2.6Y-1.6996
X5.6Y-1.4996
X5.7Y-1.4996
T8
X2.9Y-1.05
X2.9Y-1.3492
X3.0Y-2.3996
X3.0Y-2.4996
X3.0Y-2.5996
X3.0Y-2.6996
X3.0Y-2.7996
X3.0Y-2.8996
X3.0Y-2.9996
X3.0Y-3.0996
X5.2421Y-2.4654
X5.2421Y-2.9378
T9
X3.4Y-1.7
X3.4Y-1.8
X3.4Y-1.9
X3.4Y-2.0
X3.4Y-2.1
X3.4Y-2.2
X3.4Y-2.3
X3.4Y-2.4
X3.4Y-2.5
X3.4Y-2.6
X3.4Y-2.7
X3.4Y-2.8
X3.4Y-2.9
X3.4Y-3.0
X3.4Y-3.1
X3.4Y-3.2
X3.4Y-3.3
X3.4Y-3.4
X3.4Y-3.5
X4.4Y-1.7
X4.4Y-1.8
X4.4Y-1.9
X4.4Y-2.0
X4.4Y-2.1
X4.4Y-2.2
X4.4Y-2.3
X4.4Y-2.4
X4.4Y-2.5
X4.4Y-2.6
X4.4Y-2.7
X4.4Y-2.8
X4.4Y-2.9
X4.4Y-3.0
X4.4Y-3.1
X4.4Y-3.2
X4.4Y-3.3
X4.4Y-3.4
X4.4Y-3.5
T10
X5.2Y-2.0996
X5.6Y-2.0996
T11
X5.1654Y-2.6996
X5.7224Y-2.9378
X5.7244Y-2.4634
T12
X3.5703Y-4.3098
X3.5703Y-5.1583
X6.4049Y-4.3098
X6.4049Y-5.1583
T8
G00X6.0638Y-2.839
M15
G01X6.0638Y-2.7602
M16
G05
G00X6.2213Y-2.6146
M15
G01X6.1425Y-2.6146
M16
G05
G00X6.3Y-2.839
M15
G01X6.3Y-2.7602
M16
G05
T0
M30
