%TF.GenerationSoftware,KiCad,Pcbnew,7.0.8*%
%TF.CreationDate,2023-11-30T20:23:53-05:00*%
%TF.ProjectId,Esquematica Proyecto,45737175-656d-4617-9469-63612050726f,rev?*%
%TF.SameCoordinates,Original*%
%TF.FileFunction,Soldermask,Top*%
%TF.FilePolarity,Negative*%
%FSLAX46Y46*%
G04 Gerber Fmt 4.6, Leading zero omitted, Abs format (unit mm)*
G04 Created by KiCad (PCBNEW 7.0.8) date 2023-11-30 20:23:53*
%MOMM*%
%LPD*%
G01*
G04 APERTURE LIST*
G04 Aperture macros list*
%AMRoundRect*
0 Rectangle with rounded corners*
0 $1 Rounding radius*
0 $2 $3 $4 $5 $6 $7 $8 $9 X,Y pos of 4 corners*
0 Add a 4 corners polygon primitive as box body*
4,1,4,$2,$3,$4,$5,$6,$7,$8,$9,$2,$3,0*
0 Add four circle primitives for the rounded corners*
1,1,$1+$1,$2,$3*
1,1,$1+$1,$4,$5*
1,1,$1+$1,$6,$7*
1,1,$1+$1,$8,$9*
0 Add four rect primitives between the rounded corners*
20,1,$1+$1,$2,$3,$4,$5,0*
20,1,$1+$1,$4,$5,$6,$7,0*
20,1,$1+$1,$6,$7,$8,$9,0*
20,1,$1+$1,$8,$9,$2,$3,0*%
G04 Aperture macros list end*
%ADD10R,1.700000X1.700000*%
%ADD11O,1.700000X1.700000*%
%ADD12C,1.400000*%
%ADD13O,1.400000X1.400000*%
%ADD14C,1.524000*%
%ADD15C,1.880400*%
%ADD16R,1.800000X1.800000*%
%ADD17C,1.800000*%
%ADD18C,3.000000*%
%ADD19C,2.500000*%
%ADD20C,1.600000*%
%ADD21R,2.000000X2.000000*%
%ADD22C,2.000000*%
%ADD23C,3.200000*%
%ADD24R,3.500000X3.500000*%
%ADD25C,3.500000*%
%ADD26RoundRect,0.102000X-0.765000X-0.765000X0.765000X-0.765000X0.765000X0.765000X-0.765000X0.765000X0*%
%ADD27C,1.734000*%
%ADD28RoundRect,0.750000X0.750000X1.000000X-0.750000X1.000000X-0.750000X-1.000000X0.750000X-1.000000X0*%
%ADD29RoundRect,0.875000X0.875000X0.875000X-0.875000X0.875000X-0.875000X-0.875000X0.875000X-0.875000X0*%
%ADD30R,2.200000X2.200000*%
%ADD31O,2.200000X2.200000*%
%ADD32R,0.850000X0.850000*%
%ADD33O,0.850000X0.850000*%
G04 APERTURE END LIST*
D10*
%TO.C,J2*%
X76200000Y-78730000D03*
D11*
X76200000Y-76190000D03*
X76200000Y-73650000D03*
X76200000Y-71110000D03*
X76200000Y-68570000D03*
X76200000Y-66030000D03*
X76200000Y-63490000D03*
X76200000Y-60950000D03*
%TD*%
D12*
%TO.C,R4*%
X73660000Y-53330000D03*
D13*
X73660000Y-45710000D03*
%TD*%
D14*
%TO.C,J3*%
X61240000Y-139690000D03*
X78240000Y-139690000D03*
X61240000Y-90530000D03*
X78240000Y-90530000D03*
%TD*%
D15*
%TO.C,Q2*%
X73660000Y-43170000D03*
X75565000Y-41900000D03*
X73660000Y-40630000D03*
%TD*%
D16*
%TO.C,D2*%
X144780000Y-38090000D03*
D17*
X142240000Y-38090000D03*
%TD*%
D15*
%TO.C,Q1*%
X143510000Y-45710000D03*
X144780000Y-47615000D03*
X146050000Y-45710000D03*
%TD*%
D18*
%TO.C,K1*%
X131200000Y-68570000D03*
D19*
X133150000Y-74620000D03*
D18*
X145350000Y-74620000D03*
X145400000Y-62570000D03*
D19*
X133150000Y-62620000D03*
%TD*%
D12*
%TO.C,R2*%
X132080000Y-40630000D03*
D13*
X139700000Y-40630000D03*
%TD*%
D20*
%TO.C,C2*%
X141280000Y-30470000D03*
X146280000Y-30470000D03*
%TD*%
D21*
%TO.C,BZ2*%
X73660000Y-26670000D03*
D22*
X73660000Y-34270000D03*
%TD*%
D16*
%TO.C,D3*%
X66040000Y-40630000D03*
D17*
X66040000Y-43170000D03*
%TD*%
D20*
%TO.C,C1*%
X151440000Y-45710000D03*
X156440000Y-45710000D03*
%TD*%
D23*
%TO.C,BT2*%
X154040000Y-131020000D03*
X98430000Y-131020000D03*
D24*
X162685000Y-131020000D03*
D25*
X90685000Y-131020000D03*
%TD*%
D12*
%TO.C,R1*%
X132080000Y-45710000D03*
D13*
X139700000Y-45710000D03*
%TD*%
D14*
%TO.C,U2*%
X153670000Y-92700000D03*
X153670000Y-90160000D03*
X153670000Y-87620000D03*
X153670000Y-85080000D03*
X153670000Y-82540000D03*
X153670000Y-80000000D03*
%TD*%
D26*
%TO.C,U1*%
X86360000Y-43180000D03*
D27*
X86360000Y-45720000D03*
X86360000Y-48260000D03*
X86360000Y-50800000D03*
X86360000Y-53340000D03*
X86360000Y-55880000D03*
X86360000Y-58420000D03*
X86360000Y-60960000D03*
X86360000Y-63500000D03*
X86360000Y-66040000D03*
X86360000Y-68580000D03*
X86360000Y-71120000D03*
X86360000Y-73660000D03*
X86360000Y-76200000D03*
X86360000Y-78740000D03*
X86360000Y-81280000D03*
X86360000Y-83820000D03*
X86360000Y-86360000D03*
X86360000Y-88900000D03*
X111760000Y-88900000D03*
X111760000Y-86360000D03*
X111760000Y-83820000D03*
X111760000Y-81280000D03*
X111760000Y-78740000D03*
X111760000Y-76200000D03*
X111760000Y-73660000D03*
X111760000Y-71120000D03*
X111760000Y-68580000D03*
X111760000Y-66040000D03*
X111760000Y-63500000D03*
X111760000Y-60960000D03*
X111760000Y-58420000D03*
X111760000Y-55880000D03*
X111760000Y-53340000D03*
X111760000Y-50800000D03*
X111760000Y-48260000D03*
X111760000Y-45720000D03*
X111760000Y-43180000D03*
%TD*%
D24*
%TO.C,J4*%
X154020000Y-71110000D03*
D28*
X160020000Y-71110000D03*
D29*
X157020000Y-66410000D03*
%TD*%
D30*
%TO.C,D1*%
X142240000Y-53330000D03*
D31*
X132080000Y-53330000D03*
%TD*%
D23*
%TO.C,BT3*%
X154040000Y-109470000D03*
X98430000Y-109470000D03*
D24*
X162685000Y-109470000D03*
D25*
X90685000Y-109470000D03*
%TD*%
D32*
%TO.C,J1*%
X147320000Y-55870000D03*
D33*
X147320000Y-54870000D03*
%TD*%
D12*
%TO.C,R3*%
X66040000Y-53330000D03*
D13*
X66040000Y-45710000D03*
%TD*%
M02*
